<?xml version="1.0" encoding="UTF-8" standalone="no"?>
<!-- Created with Inkscape (http://www.inkscape.org/) -->

<svg
   width="33.523739mm"
   height="33.523739mm"
   viewBox="0 0 33.523739 33.523739"
   version="1.1"
   id="svg1"
   xml:space="preserve"
   xmlns:inkscape="http://www.inkscape.org/namespaces/inkscape"
   xmlns:sodipodi="http://sodipodi.sourceforge.net/DTD/sodipodi-0.dtd"
   xmlns="http://www.w3.org/2000/svg"
   xmlns:svg="http://www.w3.org/2000/svg"><sodipodi:namedview
     id="namedview1"
     pagecolor="#ffffff"
     bordercolor="#000000"
     borderopacity="0.25"
     inkscape:showpageshadow="2"
     inkscape:pageopacity="0.0"
     inkscape:pagecheckerboard="0"
     inkscape:deskcolor="#d1d1d1"
     inkscape:document-units="mm" /><defs
     id="defs1" /><g
     inkscape:label="Layer 1"
     inkscape:groupmode="layer"
     id="layer1"
     transform="translate(43.661374,-80.702779)"><g
       id="g4"
       transform="matrix(0.43955091,0,0,0.43955091,-15.075802,54.623971)"><path
         fill="#38004d"
         d="m -24.516123,135.59872 h -4.766759 a 7.1501397,7.1501397 0 0 1 -7.15014,-7.15014 2.3833799,2.3833799 0 0 0 -1.525363,-2.14504 q -0.858017,-0.23834 -1.573031,-0.57201 a 2.3833799,2.3833799 0 0 0 -2.597884,0.33367 7.1501397,7.1501397 0 0 1 -9.986362,0 l -3.384399,-3.3844 a 7.1501397,7.1501397 0 0 1 0,-9.98636 2.3833799,2.3833799 0 0 0 0.429008,-2.59788 q -0.429008,-0.71502 -0.738848,-1.57303 a 2.3833799,2.3833799 0 0 0 -2.07354,-1.52536 7.1501397,7.1501397 0 0 1 -7.15014,-7.150145 v -4.76676 a 7.1501397,7.1501397 0 0 1 7.15014,-7.150139 2.3833799,2.3833799 0 0 0 2.145042,-1.525363 q 0.238338,-0.858017 0.572011,-1.573031 a 2.3833799,2.3833799 0 0 0 -0.333673,-2.597884 7.1501397,7.1501397 0 0 1 0,-9.986362 l 3.384399,-3.384399 a 7.1501397,7.1501397 0 0 1 9.986362,0 2.3833799,2.3833799 0 0 0 2.597884,0.429008 l 1.573031,-0.643513 a 2.3833799,2.3833799 0 0 0 1.525363,-2.168875 7.1501397,7.1501397 0 0 1 7.15014,-7.15014 h 4.766759 a 7.1501397,7.1501397 0 0 1 7.15014,7.15014 2.3833799,2.3833799 0 0 0 1.525363,2.145042 l 1.573031,0.643512 a 2.3833799,2.3833799 0 0 0 2.597884,-0.405174 7.1501397,7.1501397 0 0 1 9.9863617,0 l 3.3843995,3.384399 a 7.1501397,7.1501397 0 0 1 0,9.986362 2.3833799,2.3833799 0 0 0 -0.4290084,2.597884 q 0.357507,0.786515 0.6435126,1.573031 a 2.3833799,2.3833799 0 0 0 2.1688757,1.525363 7.1501397,7.1501397 0 0 1 7.1501399,7.150139 v 4.76676 a 7.1501397,7.1501397 0 0 1 -7.1501399,7.150145 2.3833799,2.3833799 0 0 0 -2.1450419,1.52536 q -0.2860056,0.78651 -0.6435126,1.57303 a 2.3833799,2.3833799 0 0 0 0.4051746,2.59788 7.1501397,7.1501397 0 0 1 0,9.98636 l -3.3843995,3.3844 a 2.3833799,2.3833799 0 0 1 -3.3605656,0 2.3833799,2.3833799 0 0 1 0,-3.36056 l 3.4797346,-3.47974 a 2.3833799,2.3833799 0 0 0 0,-3.26523 7.1501397,7.1501397 0 0 1 -1.4300279,-7.91282 c 0.2145042,-0.42901 0.3813408,-0.88185 0.5720112,-1.33469 a 7.1501397,7.1501397 0 0 1 6.5066271,-4.48075 2.3833799,2.3833799 0 0 0 2.3833799,-2.383385 v -4.76676 a 2.3833799,2.3833799 0 0 0 -2.3833799,-2.383379 7.1501397,7.1501397 0 0 1 -6.6019623,-4.57609 13.060922,13.060922 0 0 0 -0.5481774,-1.334693 7.1501397,7.1501397 0 0 1 1.4300279,-7.912821 2.3833799,2.3833799 0 0 0 0,-3.26523 l -3.4082332,-3.479735 a 2.3833799,2.3833799 0 0 0 -3.2652305,0 7.1501397,7.1501397 0 0 1 -7.9128216,1.430028 c -0.429008,-0.214504 -0.88185,-0.381341 -1.334692,-0.572011 a 7.1501397,7.1501397 0 0 1 -4.57609,-6.506627 2.3833799,2.3833799 0 0 0 -2.38338,-2.38338 h -4.766759 a 2.3833799,2.3833799 0 0 0 -2.38338,2.38338 7.1501397,7.1501397 0 0 1 -4.57609,6.601962 13.060922,13.060922 0 0 0 -1.334693,0.548177 7.1501397,7.1501397 0 0 1 -7.912821,-1.430028 2.3833799,2.3833799 0 0 0 -3.26523,0 l -3.479735,3.408234 a 2.3833799,2.3833799 0 0 0 0,3.26523 7.1501397,7.1501397 0 0 1 1.501529,7.912821 c -0.214504,0.429009 -0.38134,0.881851 -0.572011,1.334693 a 7.1501397,7.1501397 0 0 1 -6.578128,4.57609 2.3833799,2.3833799 0 0 0 -2.38338,2.383379 v 4.76676 a 2.3833799,2.3833799 0 0 0 2.38338,2.383385 7.1501397,7.1501397 0 0 1 6.601962,4.57608 13.060922,13.060922 0 0 0 0.548177,1.3347 7.1501397,7.1501397 0 0 1 -1.430028,7.91282 2.3833799,2.3833799 0 0 0 0,3.26523 l 3.479735,3.47973 a 2.3833799,2.3833799 0 0 0 3.265231,0 7.1501397,7.1501397 0 0 1 7.912821,-1.43002 c 0.429008,0.2145 0.88185,0.38134 1.334693,0.57201 a 7.1501397,7.1501397 0 0 1 4.504588,6.50662 2.3833799,2.3833799 0 0 0 2.38338,2.38338 h 4.766759 a 2.3833799,2.3833799 0 0 0 2.38338,-2.38338 7.1501397,7.1501397 0 0 1 4.57609,-6.60196 13.060922,13.060922 0 0 0 1.334692,-0.54818 2.3897195,2.3897195 0 1 1 1.954372,4.36159 q -0.786515,0.35751 -1.573031,0.64351 a 2.3833799,2.3833799 0 0 0 -1.525363,2.14504 7.1501397,7.1501397 0 0 1 -7.15014,7.15014 z"
         id="path1"
         style="fill:#16eae7;fill-opacity:1;stroke-width:2.38338" /><path
         fill="#9f85ec"
         d="m -38.816402,106.99817 a 2.3833799,2.3833799 0 0 1 -1.6922,-0.69119 l -7.15014,-7.150135 a 2.3833799,2.3833799 0 0 1 0,-3.384399 l 7.15014,-7.15014 a 2.3931318,2.3931318 0 0 1 3.3844,3.384399 l -5.481774,5.45794 5.481774,5.457945 a 2.3833799,2.3833799 0 0 1 -1.6922,4.07558 z m 23.833799,0 a 2.3833799,2.3833799 0 0 1 -1.6922,-4.07558 l 5.481774,-5.457945 -5.481774,-5.45794 a 2.3931318,2.3931318 0 0 1 3.3844,-3.384399 l 7.1501393,7.15014 a 2.3833799,2.3833799 0 0 1 0,3.384399 l -7.1501393,7.150135 a 2.3833799,2.3833799 0 0 1 -1.6922,0.69119 z m -14.300279,4.76675 a 2.3833799,2.3833799 0 0 1 -2.38338,-2.86005 l 4.766759,-23.8338 a 2.4305802,2.4305802 0 0 1 4.76676,0.953352 l -4.76676,23.833798 a 2.3833799,2.3833799 0 0 1 -2.383379,1.9067 z"
         id="path2"
         style="fill:#16eae7;fill-opacity:1;stroke-width:2.38338" /></g></g></svg>
