<?xml version="1.0" encoding="UTF-8" standalone="no"?>
<!-- Created with Inkscape (http://www.inkscape.org/) -->

<svg
   width="33.866665mm"
   height="28.045834mm"
   viewBox="0 0 33.866665 28.045834"
   version="1.1"
   id="svg1"
   xml:space="preserve"
   xmlns:inkscape="http://www.inkscape.org/namespaces/inkscape"
   xmlns:sodipodi="http://sodipodi.sourceforge.net/DTD/sodipodi-0.dtd"
   xmlns="http://www.w3.org/2000/svg"
   xmlns:svg="http://www.w3.org/2000/svg"><sodipodi:namedview
     id="namedview1"
     pagecolor="#ffffff"
     bordercolor="#000000"
     borderopacity="0.25"
     inkscape:showpageshadow="2"
     inkscape:pageopacity="0.0"
     inkscape:pagecheckerboard="0"
     inkscape:deskcolor="#d1d1d1"
     inkscape:document-units="mm" /><defs
     id="defs1" /><g
     inkscape:label="Layer 1"
     inkscape:groupmode="layer"
     id="layer1"
     transform="translate(113.10827,-84.91567)"><g
       id="g3"><path
         d="m -80.829104,84.915669 h -30.691666 a 1.5892356,1.5892356 0 0 0 -1.5875,1.5875 v 22.754161 a 1.5892356,1.5892356 0 0 0 1.5875,1.5875 h 10.58333 v 1.05834 h -3.70416 a 0.52916666,0.52916666 0 0 0 0,1.05833 h 16.93333 a 0.52916666,0.52916666 0 0 0 0,-1.05833 h -3.704167 v -1.05834 h 10.583333 a 1.5892356,1.5892356 0 0 0 1.5875,-1.5875 V 86.503169 a 1.5892356,1.5892356 0 0 0 -1.5875,-1.5875 z M -92.47077,111.90317 h -7.408333 v -1.05834 h 7.408333 z m 12.170833,-2.64584 a 0.52969583,0.52969583 0 0 1 -0.529167,0.52917 h -30.691666 a 0.52969583,0.52969583 0 0 1 -0.52917,-0.52917 v -0.52916 h 31.750003 z m 0,-1.58749 H -112.04994 V 86.503169 a 0.52969583,0.52969583 0 0 1 0.52917,-0.529167 h 30.691666 a 0.52969583,0.52969583 0 0 1 0.529167,0.529167 z"
         id="path1-3"
         style="fill:#16eae7;fill-opacity:1;stroke-width:0.264583" /><path
         d="m -107.8166,94.176085 h 1.05833 a 1.0595451,1.0595451 0 0 0 1.05833,-1.058333 v -1.5875 a 1.0595451,1.0595451 0 0 0 -1.05833,-1.058333 h -1.05833 a 1.0595451,1.0595451 0 0 0 -1.05834,1.058333 v 1.5875 a 1.0595451,1.0595451 0 0 0 1.05834,1.058333 z m 0,-2.645833 h 1.05833 v 1.5875 l -1.05833,6.35e-4 z m 0,7.408333 h 1.05833 a 1.0595451,1.0595451 0 0 0 1.05833,-1.058333 v -1.5875 a 1.0595451,1.0595451 0 0 0 -1.05833,-1.058333 h -1.05833 a 1.0595451,1.0595451 0 0 0 -1.05834,1.058333 v 1.5875 a 1.0595451,1.0595451 0 0 0 1.05834,1.058333 z m 0,-2.645833 h 1.05833 v 1.5875 l -1.05833,6.35e-4 z m 0,7.408338 h 1.05833 a 1.0595451,1.0595451 0 0 0 1.05833,-1.05834 v -1.5875 a 1.0595451,1.0595451 0 0 0 -1.05833,-1.058332 h -1.05833 a 1.0595451,1.0595451 0 0 0 -1.05834,1.058332 v 1.5875 a 1.0595451,1.0595451 0 0 0 1.05834,1.05834 z m 0,-2.64584 h 1.05833 v 1.5875 l -1.05833,6.4e-4 z"
         id="path2-7"
         style="fill:#16eae7;fill-opacity:1;stroke-width:0.264583" /><path
         d="m -93.529104,104.75942 v -4.867486 l -1.058333,-0.268411 v 5.135897 h -8.995833 v -7.143752 h 4.282265 a 7.9624236,7.9624236 0 0 1 -1.059645,-1.058333 h -3.22262 v -7.14375 h 8.995833 v 4.758383 l 1.058333,0.274968 v -5.033351 h 0.538163 l -0.07554,-1.058333 h -16.403239 a 1.5574169,1.5574169 0 0 0 -1.52188,1.5875 v 14.287498 a 1.5574169,1.5574169 0 0 0 1.52188,1.5875 h 16.93733 a 3.6412963,3.6412963 0 0 1 -0.396505,-1.05833 z m -11.112496,0 h -4.82812 a 0.50019479,0.50019479 0 0 1 -0.46355,-0.52917 V 89.942752 a 0.50019479,0.50019479 0 0 1 0.46355,-0.529167 h 4.82812 z"
         id="path3"
         style="fill:#16eae7;fill-opacity:1;stroke-width:0.264583" /><path
         d="m -83.338383,97.081075 a 2.6904262,2.6904262 0 0 0 -2.299213,0.496999 l -1.942759,-0.504748 a 2.387764,2.387764 0 0 0 -0.666043,-0.702316 l -0.274225,-4.190412 a 6.9156315,6.9156315 0 0 0 -2.695575,-5.052275 0.52922222,0.52922222 0 0 0 -0.848916,0.45837 l 0.605317,8.478716 -8.290761,-2.154037 a 0.52909258,0.52909258 0 0 0 -0.603972,0.753444 6.9703923,6.9703923 0 0 0 4.503345,3.558825 l 4.116044,1.043821 a 2.3869385,2.3869385 0 0 0 0.559961,0.784268 l 0.140759,1.97154 a 2.6535062,2.6535062 0 0 0 -0.915837,2.1562 2.5938215,2.5938215 0 0 0 2.597774,2.44481 2.6460026,2.6460026 0 0 0 0.47271,-0.0426 2.6733923,2.6733923 0 0 0 2.150901,-2.33707 2.5953455,2.5953455 0 0 0 -1.161814,-2.43783 l -0.104095,-1.5907 1.564343,0.39671 a 2.6157661,2.6157661 0 0 0 2.195473,1.5813 q 0.114721,0.0105 0.229055,0.0105 a 2.6884656,2.6884656 0 0 0 2.477498,-1.67897 2.5747821,2.5747821 0 0 0 -0.113173,-2.116142 2.6184198,2.6184198 0 0 0 -1.696797,-1.328343 z m -8.597617,1.043686 -3.655001,-0.926896 a 5.9665922,5.9665922 0 0 1 -3.08586,-1.914094 l 7.051831,1.832155 a 2.3303759,2.3303759 0 0 0 -0.31097,1.008835 z m 3.648075,0.05826 a 1.2880895,1.2880895 0 0 1 -1.145278,1.436621 1.3056473,1.3056473 0 0 1 -0.132067,0.0067 1.3286713,1.3286713 0 0 1 -1.310626,-1.180258 1.2880843,1.2880843 0 0 1 1.145262,-1.436606 1.3062479,1.3062479 0 0 1 0.132082,-0.0067 1.3286846,1.3286846 0 0 1 1.310617,1.180262 z m -1.288698,-5.93344 0.242821,3.711115 a 2.3743708,2.3743708 0 0 0 -0.264728,-0.01626 h -8.2e-5 a 2.3066772,2.3066772 0 0 0 -0.798627,0.14169 l -0.514455,-7.206488 a 5.8835395,5.8835395 0 0 1 1.335063,3.369948 z m 1.794076,11.895019 a 1.5974245,1.5974245 0 0 1 -1.286097,1.39578 1.5389622,1.5389622 0 0 1 -1.825083,-1.42382 1.5919582,1.5919582 0 0 1 0.702541,-1.40805 0.52943124,0.52943124 0 0 0 0.232672,-0.47685 l -0.114496,-1.6039 a 2.269027,2.269027 0 0 0 1.044154,-0.007 l 0.10064,1.53811 a 0.52890208,0.52890208 0 0 0 0.293904,0.44005 1.5433807,1.5433807 0 0 1 0.851757,1.54564 z m 5.266862,-4.00041 a 1.6101695,1.6101695 0 0 1 -1.623414,0.99594 1.5581762,1.5581762 0 0 1 -1.37848,-1.11608 0.52906083,0.52906083 0 0 0 -0.378788,-0.367686 l -1.519563,-0.38536 a 2.3418667,2.3418667 0 0 0 0.192252,-1.011566 l 1.592151,0.413655 a 0.52899468,0.52899468 0 0 0 0.507593,-0.138234 1.6246528,1.6246528 0 0 1 1.531302,-0.426461 1.5597743,1.5597743 0 0 1 1.012212,0.789488 1.4962002,1.4962002 0 0 1 0.06473,1.246314 z"
         id="path4"
         style="fill:#16eae7;fill-opacity:1;stroke-width:0.264583" /></g></g></svg>
