<?xml version="1.0" encoding="UTF-8" standalone="no"?>
<!-- Created with Inkscape (http://www.inkscape.org/) -->

<svg
   width="37.435707mm"
   height="27.225988mm"
   viewBox="0 0 37.435707 27.225988"
   version="1.1"
   id="svg1"
   xml:space="preserve"
   xmlns:inkscape="http://www.inkscape.org/namespaces/inkscape"
   xmlns:sodipodi="http://sodipodi.sourceforge.net/DTD/sodipodi-0.dtd"
   xmlns="http://www.w3.org/2000/svg"
   xmlns:svg="http://www.w3.org/2000/svg"><sodipodi:namedview
     id="namedview1"
     pagecolor="#ffffff"
     bordercolor="#000000"
     borderopacity="0.25"
     inkscape:showpageshadow="2"
     inkscape:pageopacity="0.0"
     inkscape:pagecheckerboard="0"
     inkscape:deskcolor="#d1d1d1"
     inkscape:document-units="mm" /><defs
     id="defs1" /><g
     inkscape:label="Layer 1"
     inkscape:groupmode="layer"
     id="layer1"
     transform="translate(69.937456,-140.96702)"><g
       id="g2"
       transform="matrix(0.85081162,0,0,0.85081162,-71.639081,134.16054)"
       style="fill:#16eae7;fill-opacity:1"><path
         d="M 45,8 H 3 A 1,1 0 0 0 2,9 v 30 a 1,1 0 0 0 1,1 h 42 a 1,1 0 0 0 1,-1 V 9 A 1,1 0 0 0 45,8 Z M 4,10 h 40 v 4 H 4 Z m 8,28 v -6 h 4 v 6 z m 10,0 v -6 h 4 v 6 z m 10,0 v -6 h 4 v 6 z m 12,0 h -6 v -7 a 1,1 0 0 0 -1,-1 h -6 a 1,1 0 0 0 -1,1 v 7 h -2 v -7 a 1,1 0 0 0 -1,-1 h -6 a 1,1 0 0 0 -1,1 v 7 h -2 v -7 a 1,1 0 0 0 -1,-1 h -6 a 1,1 0 0 0 -1,1 v 7 H 4 V 16 h 40 z"
         id="path1-7"
         style="fill:#16eae7;fill-opacity:1" /><path
         d="m 6,11 v 0 a 1,1 0 1 0 1,1 1,1 0 0 0 -1,-1 z m 3,0 v 0 a 1,1 0 1 0 1,1 1,1 0 0 0 -1,-1 z m 3,0 v 0 a 1,1 0 1 0 1,1 1,1 0 0 0 -1,-1 z m -1,17 h 26 a 1,1 0 0 0 1,-1 V 19 A 1,1 0 0 0 37,18 H 11 a 1,1 0 0 0 -1,1 v 8 a 1,1 0 0 0 1,1 z m 1,-8 h 24 v 6 H 12 Z"
         id="path2-0"
         style="fill:#16eae7;fill-opacity:1" /></g></g></svg>
